<?xml version="1.0" encoding="UTF-8" standalone="no"?>
<svg xmlns:dc="http://purl.org/dc/elements/1.1/" xmlns:cc="http://creativecommons.org/ns#"
     xmlns:rdf="http://www.w3.org/1999/02/22-rdf-syntax-ns#" xmlns:svg="http://www.w3.org/2000/svg"
     xmlns="http://www.w3.org/2000/svg" xmlns:sodipodi="http://sodipodi.sourceforge.net/DTD/sodipodi-0.dtd"
     xmlns:inkscape="http://www.inkscape.org/namespaces/inkscape" width="256" height="256" viewBox="0 0 500 500"
     id="svg2" version="1.1" inkscape:version="0.91 r13725" sodipodi:docname="icon.svg">
    <defs id="defs4"/>
    <sodipodi:namedview id="base" pagecolor="#ffffff" bordercolor="#666666" borderopacity="1.0"
                        inkscape:pageopacity="0.0" inkscape:pageshadow="2" inkscape:zoom="1.979899"
                        inkscape:cx="200.15847" inkscape:cy="117.31086" inkscape:document-units="px"
                        inkscape:current-layer="layer1" showgrid="false" units="px" inkscape:window-width="1366"
                        inkscape:window-height="697" inkscape:window-x="0" inkscape:window-y="24"
                        inkscape:window-maximized="1">
        <inkscape:grid type="xygrid" id="grid4159"/>
    </sodipodi:namedview>
    <metadata id="metadata7">
        <rdf:RDF>
            <cc:Work rdf:about="">
                <dc:format>image/svg+xml</dc:format>
                <dc:type rdf:resource="http://purl.org/dc/dcmitype/StillImage"/>
                <dc:title/>
            </cc:Work>
        </rdf:RDF>
    </metadata>
    <g inkscape:label="Layer 1" inkscape:groupmode="layer" id="layer1" transform="translate(0,-552.36216)">
        <g id="g3367" transform="translate(9.4331868,-0.18496445)">
            <rect y="642.36224" x="69.999985" height="200" width="100" id="rect3336"
                  style="fill:#f44336;fill-opacity:1"/>
            <rect y="642.36218" x="190.02231" height="200" width="100" id="rect3336-3"
                  style="fill:#4caf50;fill-opacity:1"/>
            <rect y="642.36224" x="310.02234" height="200" width="100" id="rect3336-6"
                  style="fill:#2196f3;fill-opacity:1"/>
            <g transform="matrix(2.5,0,0,2.5,19.919128,722.36216)" id="g4280">
                <rect style="fill:none" y="0" x="0" width="20" height="20" id="rect4268"/>
                <g id="g4270">
                    <path inkscape:connector-curvature="0" d="m 14,5 -5,5 5,5 -1,2 -7,-7 7,-7 z" id="path4272"/>
                </g>
            </g>
            <g inkscape:transform-center-y="2.0203051" inkscape:transform-center-x="12.121831"
               transform="matrix(2.5,0,0,2.5,410.01132,722.36216)" id="g4351">
                <rect style="fill:none" y="0" x="0" width="20" height="20" id="rect4339"/>
                <g id="g4341">
                    <path inkscape:connector-curvature="0" d="M 6,15 11,10 6,5 7,3 14,10 7,17 Z" id="path4343"/>
                </g>
            </g>
        </g>
        <g transform="matrix(1.0251246,0,0,1.9522527,2.3334664,231.46917)"
           style="font-style:normal;font-weight:normal;font-size:40px;line-height:125%;font-family:sans-serif;letter-spacing:0px;word-spacing:0px;fill:#00d1b2;fill-opacity:1;stroke:none;stroke-width:1px;stroke-linecap:butt;stroke-linejoin:miter;stroke-opacity:1"
           id="flowRoot4356">
            <g id="g3499" style="fill:#00d1b2;fill-opacity:1">
                <path id="path3455"
                      style="font-style:normal;font-variant:normal;font-weight:normal;font-stretch:normal;font-size:56.25px;font-family:Lobster;-inkscape-font-specification:Lobster;text-align:center;text-anchor:middle;fill:#00d1b2;fill-opacity:1"
                      d="m 102.04871,369.91455 q -1.1261,2.82898 -3.04871,4.83399 -1.922607,1.97753 -4.174805,3.24096 -2.224731,1.23596 -4.559326,1.81275 -2.307129,0.57678 -4.257202,0.57678 -3.131104,0 -5.438232,-0.74158 -2.307129,-0.74158 -3.845215,-2.38953 -1.51062,-1.64794 -2.279663,-4.28466 -0.741578,-2.63672 -0.741578,-6.42701 0,-1.9226 0.219727,-4.1748 0.247192,-2.27966 0.769043,-4.69666 0.521851,-2.41699 1.318359,-4.86145 0.823975,-2.44445 1.977539,-4.69665 1.153565,-2.27966 2.664185,-4.2572 1.51062,-1.97754 3.405762,-3.43323 1.895141,-1.45569 4.20227,-2.27966 2.307129,-0.85144 5.081177,-0.85144 1.950073,0 3.652954,0.43945 1.730347,0.41199 2.993775,1.31836 1.29089,0.90637 2.005,2.33459 0.74158,1.42823 0.74158,3.43323 0,1.1261 -0.21972,2.0874 -0.19227,0.93384 -0.68665,1.64795 -0.46692,0.68665 -1.23596,1.07117 -0.74158,0.38452 -1.812747,0.38452 -0.659179,0 -1.538086,-0.24719 -0.85144,-0.24719 -1.647949,-1.2085 0.494385,-0.24719 0.961304,-0.76904 0.466919,-0.54932 0.823975,-1.23596 0.357055,-0.71411 0.576782,-1.53809 0.219726,-0.82397 0.219726,-1.64795 0,-0.65918 -0.19226,-1.29089 -0.164795,-0.63171 -0.576783,-1.09863 -0.411987,-0.46692 -1.071167,-0.74158 -0.659179,-0.30213 -1.593017,-0.30213 -1.565552,0 -3.048706,1.15357 -1.455689,1.15356 -2.774048,3.1311 -1.290894,1.95008 -2.389526,4.55933 -1.071167,2.60925 -1.84021,5.52063 -0.769043,2.91138 -1.208496,5.98755 -0.439454,3.07617 -0.439454,5.93262 0,1.95007 0.274659,3.57055 0.302124,1.59302 1.043701,2.74658 0.769043,1.15357 2.059936,1.81275 1.31836,0.63171 3.378296,0.63171 3.323364,0 6.152344,-1.48315 2.828979,-1.48316 4.806516,-4.14734 l 1.2909,0.57678 z"
                      inkscape:connector-curvature="0"/>
                <path id="path3457"
                      style="font-style:normal;font-variant:normal;font-weight:normal;font-stretch:normal;font-size:56.25px;font-family:Lobster;-inkscape-font-specification:Lobster;text-align:center;text-anchor:middle;fill:#00d1b2;fill-opacity:1"
                      d="m 132.5907,369.3927 q -0.79651,2.27966 -1.73035,3.95508 -0.93384,1.67541 -1.95007,2.82898 -0.98877,1.15356 -2.03247,1.86767 -1.0437,0.71411 -2.03247,1.09864 -0.98877,0.38452 -1.89514,0.52185 -0.90638,0.13733 -1.64795,0.13733 -2.38953,0 -3.81775,-1.2909 -1.40076,-1.31836 -1.70288,-3.87268 -0.68665,0.96131 -1.51062,1.89514 -0.82398,0.90638 -1.84021,1.64795 -1.01624,0.71411 -2.27967,1.18103 -1.23596,0.43946 -2.74658,0.43946 -1.45569,0 -2.80151,-0.46692 -1.34583,-0.46692 -2.38953,-1.53809 -1.0437,-1.07117 -1.67541,-2.80151 -0.631718,-1.73035 -0.631718,-4.22974 0,-1.92261 0.384518,-4.11987 0.38453,-2.19727 1.18103,-4.39453 0.79651,-2.19727 1.97754,-4.20227 1.2085,-2.03247 2.80152,-3.57056 1.62048,-1.56555 3.65295,-2.47192 2.03247,-0.93384 4.47693,-0.93384 2.38953,0 3.46069,0.82397 1.09864,0.82398 1.09864,2.03247 l 0,0.41199 0.60424,-2.99377 8.10242,0 -4.03747,19.11621 q -0.13733,0.46692 -0.19227,0.93384 -0.0549,0.43945 -0.0549,0.8789 0,2.41699 2.30713,2.41699 0.82398,0 1.51062,-0.41198 0.71411,-0.43946 1.2909,-1.15357 0.57678,-0.71411 1.01623,-1.67541 0.43945,-0.98877 0.74158,-2.05994 l 2.36206,0 z m -14.17237,-12.68921 q 0,-0.24719 -0.10986,-0.60425 -0.10986,-0.38452 -0.38452,-0.71411 -0.24719,-0.35705 -0.68665,-0.57678 -0.43945,-0.24719 -1.12609,-0.24719 -1.18103,0 -2.2522,0.76904 -1.0437,0.76904 -1.92261,2.05994 -0.8789,1.26342 -1.56555,2.88391 -0.68665,1.62048 -1.18103,3.35083 -0.46692,1.70288 -0.71411,3.37829 -0.24719,1.64795 -0.24719,2.96631 0,1.62049 0.30212,2.49939 0.30212,0.87891 0.71411,1.31836 0.43945,0.41199 0.93384,0.49439 0.49438,0.0824 0.87891,0.0824 0.63171,0 1.31835,-0.30212 0.71412,-0.32959 1.34583,-0.93384 0.65918,-0.63171 1.18103,-1.56555 0.54932,-0.93384 0.82397,-2.1698 l 2.69165,-12.68921 z"
                      inkscape:connector-curvature="0"/>
                <path id="path3459"
                      style="font-style:normal;font-variant:normal;font-weight:normal;font-stretch:normal;font-size:56.25px;font-family:Lobster;-inkscape-font-specification:Lobster;text-align:center;text-anchor:middle;fill:#00d1b2;fill-opacity:1"
                      d="m 128.05884,379.47266 5.96008,-28.125 8.10242,0 -0.71411,3.48816 q 0.74157,-0.65918 1.51062,-1.2909 0.76904,-0.63171 1.59301,-1.09863 0.85144,-0.49439 1.75782,-0.79651 0.90637,-0.30212 1.9226,-0.30212 0.96131,0 1.67542,0.35705 0.74158,0.35706 1.23596,0.93384 0.49439,0.57678 0.74158,1.34582 0.24719,0.76905 0.24719,1.59302 0,0.74158 -0.24719,1.48316 -0.24719,0.71411 -0.76904,1.29089 -0.49439,0.57678 -1.26343,0.9613 -0.76905,0.35706 -1.78528,0.35706 -0.79651,0 -1.23596,-0.27466 -0.41199,-0.27466 -0.63172,-0.68664 -0.21972,-0.41199 -0.32959,-0.87891 -0.0824,-0.49438 -0.19226,-0.90637 -0.10986,-0.41199 -0.30212,-0.68665 -0.1648,-0.27466 -0.57678,-0.27466 -1.2909,0 -2.1698,0.60425 -0.87891,0.57678 -1.92261,1.53809 l -4.5044,21.36841 -8.10241,0 z"
                      inkscape:connector-curvature="0"/>
                <path id="path3461"
                      style="font-style:normal;font-variant:normal;font-weight:normal;font-stretch:normal;font-size:56.25px;font-family:Lobster;-inkscape-font-specification:Lobster;text-align:center;text-anchor:middle;fill:#00d1b2;fill-opacity:1"
                      d="m 183.01794,358.10425 q -1.64794,1.73034 -4.2572,2.93884 -2.60925,1.2085 -5.71289,1.73035 -0.32959,3.90014 -1.51062,7.03125 -1.15356,3.1311 -2.93884,5.32837 -1.78528,2.19726 -4.09241,3.37829 -2.30713,1.18103 -4.88891,1.18103 -1.95008,0 -3.62549,-0.46692 -1.64795,-0.49438 -2.85645,-1.53808 -1.18103,-1.07117 -1.84021,-2.74658 -0.68664,-1.70288 -0.68664,-4.11988 0,-1.64795 0.35705,-3.73535 0.32959,-2.11487 1.07117,-4.3396 0.76904,-2.22473 1.95007,-4.3396 1.2085,-2.14233 2.91138,-3.81775 1.73035,-1.67541 3.98254,-2.69165 2.2522,-1.0437 5.13611,-1.0437 7.22351,0 7.22351,8.98132 l 0,0.0549 q 0.13733,0.0549 0.24719,0.0549 0.13733,0 0.35706,0 0.98877,0 2.11487,-0.27466 1.15356,-0.30212 2.30713,-0.76904 1.15356,-0.46692 2.25219,-1.07117 1.09864,-0.63171 2.00501,-1.26343 l 0.49438,1.53809 z m -14.63928,4.83398 q -0.8789,-0.21972 -1.20849,-0.85144 -0.30213,-0.65918 -0.30213,-1.51062 0,-1.18103 0.46692,-1.92261 0.49439,-0.76904 1.29089,-1.12609 -0.0549,-0.90638 -0.19226,-1.51062 -0.13733,-0.63172 -0.38452,-1.01624 -0.24719,-0.41199 -0.63171,-0.57678 -0.35706,-0.1648 -0.93384,-0.1648 -1.01623,0 -1.95007,0.79651 -0.93384,0.76904 -1.78528,2.05994 -0.82398,1.29089 -1.53809,2.96631 -0.68664,1.64795 -1.18103,3.40576 -0.49438,1.75781 -0.76904,3.48816 -0.27466,1.70288 -0.27466,3.10364 0,1.40075 0.13733,2.27966 0.1648,0.87891 0.49439,1.40076 0.35705,0.49438 0.90637,0.68664 0.54931,0.19226 1.34582,0.19226 1.01624,0 2.03247,-0.90637 1.0437,-0.90637 1.92261,-2.47192 0.87891,-1.56556 1.53809,-3.70789 0.68664,-2.14233 1.01623,-4.61426 z"
                      inkscape:connector-curvature="0"/>
                <path id="path3463"
                      style="font-style:normal;font-variant:normal;font-weight:normal;font-stretch:normal;font-size:56.25px;font-family:Lobster;-inkscape-font-specification:Lobster;text-align:center;text-anchor:middle;fill:#00d1b2;fill-opacity:1"
                      d="m 206.88574,369.3927 q -0.79651,2.27966 -1.73034,3.95508 -0.93384,1.67541 -1.95008,2.82898 -0.98877,1.15356 -2.03247,1.86767 -1.0437,0.71411 -2.03247,1.09864 -0.98877,0.38452 -1.89514,0.52185 -0.90637,0.13733 -1.64795,0.13733 -2.41699,0 -3.84521,-1.31836 -1.42823,-1.34583 -1.73035,-4.01001 -1.07117,1.73034 -2.1698,2.77404 -1.09863,1.04371 -2.1698,1.62049 -1.07117,0.57678 -2.0874,0.74158 -1.01624,0.19226 -1.89515,0.19226 -1.26342,0 -2.36206,-0.38453 -1.09863,-0.38452 -1.9226,-1.20849 -0.79651,-0.82398 -1.26343,-2.0874 -0.46692,-1.26343 -0.46692,-3.04871 0,-0.76904 0.10986,-1.67541 0.10987,-0.93384 0.32959,-2.00501 l 3.81775,-18.04504 8.10242,0 -4.03748,19.11621 q -0.16479,0.8789 -0.16479,1.59301 0,0.96131 0.35705,1.64795 0.35706,0.65918 1.31836,0.65918 0.82398,0 1.51062,-0.35705 0.68665,-0.38452 1.23597,-1.0437 0.57678,-0.65918 0.98877,-1.56555 0.43945,-0.93384 0.76904,-2.00501 l 3.81775,-18.04504 8.10241,0 -4.03747,19.11621 q -0.13733,0.46692 -0.19226,0.93384 -0.0549,0.43945 -0.0549,0.8789 0,1.18103 0.54931,1.64795 0.57679,0.43945 1.75782,0.43945 0.82397,0 1.51062,-0.35705 0.71411,-0.38452 1.29089,-1.0437 0.57678,-0.65918 1.01623,-1.56555 0.43946,-0.93384 0.74158,-2.00501 l 2.36206,0 z"
                      inkscape:connector-curvature="0"/>
                <path id="path3465"
                      style="font-style:normal;font-variant:normal;font-weight:normal;font-stretch:normal;font-size:56.25px;font-family:Lobster;-inkscape-font-specification:Lobster;text-align:center;text-anchor:middle;fill:#00d1b2;fill-opacity:1"
                      d="m 228.41895,369.3927 q -2.19727,2.55432 -4.422,4.22974 -2.19727,1.64795 -4.17481,2.80151 -0.8789,0.93384 -1.97754,1.59302 -1.07116,0.63171 -2.25219,1.0437 -1.15357,0.38452 -2.36206,0.54932 -1.18103,0.19226 -2.2522,0.19226 -2.11487,0 -3.68042,-0.63172 -1.53809,-0.65918 -2.55432,-1.67541 -1.01624,-1.0437 -1.48316,-2.30713 -0.49438,-1.2909 -0.49438,-2.58179 0,-0.98877 0.27466,-1.81274 0.24719,-0.85144 0.65918,-1.51062 0.41198,-0.65918 0.93383,-1.1261 0.54932,-0.49439 1.1261,-0.76904 2.36206,-4.22974 3.98255,-8.34961 1.62048,-4.14734 2.93884,-8.32215 l 8.32214,-1.09863 q 0.1648,3.65295 0.30213,6.3446 0.16479,2.66419 0.30212,4.64173 0.13733,1.95007 0.24719,3.32336 0.10987,1.37329 0.19226,2.44446 0.10987,1.0437 0.13733,1.92261 0.0549,0.85144 0.0549,1.78528 0,0.63171 -0.0549,1.15356 -0.0275,0.52185 -0.16479,0.98877 1.23596,-0.71411 2.22473,-1.40076 1.01624,-0.71411 1.81274,-1.42822 l 2.36207,0 z m -22.65931,2.03247 q 0,1.97754 0.76905,2.96631 0.79651,0.9613 2.66418,0.9613 0.93384,0 1.81275,-0.24719 0.8789,-0.27466 1.56555,-0.87891 0.68664,-0.63171 1.09863,-1.62048 0.41199,-0.98877 0.41199,-2.47192 0,-0.71411 -0.0549,-1.37329 -0.0275,-0.68665 -0.0824,-1.42823 -0.0549,-0.76904 -0.1648,-1.70288 -0.0824,-0.93384 -0.21972,-2.1698 -0.10987,-1.23596 -0.2472,-2.85644 -0.13732,-1.62049 -0.30212,-3.79029 -0.85144,2.74659 -2.005,5.32837 -1.15357,2.58179 -2.55433,5.30091 0.54932,0.30212 0.90638,0.76904 0.38452,0.46692 0.38452,1.18103 0,0.52185 -0.1648,1.01624 -0.16479,0.49438 -0.49438,0.90637 -0.32959,0.38452 -0.79651,0.63171 -0.43945,0.21973 -1.01624,0.21973 -0.46692,0 -0.8789,-0.13733 -0.41199,-0.13733 -0.63172,-0.60425 z"
                      inkscape:connector-curvature="0"/>
                <path id="path3467"
                      style="font-style:normal;font-variant:normal;font-weight:normal;font-stretch:normal;font-size:56.25px;font-family:Lobster;-inkscape-font-specification:Lobster;text-align:center;text-anchor:middle;fill:#00d1b2;fill-opacity:1"
                      d="m 249.62256,369.3927 q -1.18103,1.97754 -2.71912,3.84522 -1.51062,1.86767 -3.43323,3.32336 -1.89514,1.45569 -4.22973,2.36206 -2.30713,0.87891 -5.08118,0.87891 -2.005,0 -3.62549,-0.49439 -1.62048,-0.52185 -2.77404,-1.59302 -1.15357,-1.07116 -1.75782,-2.74658 -0.63171,-1.70288 -0.63171,-4.09241 0,-1.62048 0.32959,-3.73535 0.32959,-2.11487 1.0437,-4.3396 0.71411,-2.22473 1.89514,-4.36706 1.18103,-2.14234 2.85645,-3.81775 1.67541,-1.70288 3.92761,-2.71912 2.2522,-1.0437 5.13611,-1.0437 1.89514,0 3.07617,0.46692 1.2085,0.43945 1.89514,1.18103 0.71411,0.74158 0.96131,1.73035 0.27465,0.9613 0.27465,2.005 0,2.44446 -1.07116,4.55933 -1.07117,2.0874 -2.88391,3.65295 -1.78528,1.56555 -4.11988,2.52686 -2.33459,0.9613 -4.86145,1.1261 -0.0549,0.63171 -0.10986,1.20849 -0.0275,0.54932 -0.0275,1.0437 0,1.42823 0.2472,2.36206 0.27465,0.90638 0.76904,1.42823 0.52185,0.52185 1.26343,0.74157 0.76904,0.19226 1.78527,0.19226 1.67542,0 3.02124,-0.43945 1.3733,-0.43945 2.55433,-1.20849 1.18103,-0.76905 2.22473,-1.81275 1.07116,-1.0437 2.14233,-2.22473 l 1.92261,0 z m -15.35339,-3.98254 q 1.59301,-0.10987 3.07617,-0.90638 1.48315,-0.7965 2.60925,-2.05993 1.1261,-1.2909 1.78528,-2.91138 0.68664,-1.64795 0.68664,-3.40576 0,-1.0437 -0.30212,-1.67542 -0.30212,-0.63171 -1.09863,-0.63171 -1.07117,0 -2.11487,1.0437 -1.01624,1.01624 -1.92261,2.66419 -0.90637,1.64795 -1.62048,3.73535 -0.68665,2.05993 -1.09863,4.14734 z"
                      inkscape:connector-curvature="0"/>
                <path id="path3469"
                      style="font-style:normal;font-variant:normal;font-weight:normal;font-stretch:normal;font-size:56.25px;font-family:Lobster;-inkscape-font-specification:Lobster;text-align:center;text-anchor:middle;fill:#00d1b2;fill-opacity:1"
                      d="m 253.66003,341.10291 8.32215,-1.1261 -6.45447,30.37719 q -0.13733,0.46692 -0.19226,0.87891 -0.0549,0.38452 -0.0549,0.76904 0,0.96131 0.49438,1.62049 0.49439,0.63171 1.81275,0.63171 0.79651,0 1.15356,-0.10986 0.35706,-0.10987 0.65918,-0.2472 -0.10986,1.51062 -0.68664,2.63672 -0.54932,1.09864 -1.40076,1.84021 -0.85144,0.71411 -1.92261,1.07117 -1.07117,0.35706 -2.1698,0.35706 -1.26343,0 -2.36206,-0.38453 -1.09863,-0.41198 -1.92261,-1.23596 -0.79651,-0.85144 -1.26342,-2.14233 -0.46692,-1.29089 -0.46692,-3.10364 0,-0.74158 0.10986,-1.64795 0.10986,-0.93384 0.32959,-2.005 l 6.01501,-28.17993 z"
                      inkscape:connector-curvature="0"/>
                <path id="path3471"
                      style="font-style:normal;font-variant:normal;font-weight:normal;font-stretch:normal;font-size:56.25px;font-family:Lobster;-inkscape-font-specification:Lobster;text-align:center;text-anchor:middle;fill:#00d1b2;fill-opacity:1"
                      d="m 302.68652,344.86572 q 0,1.18103 -0.32959,2.1698 -0.30212,0.96131 -0.85144,1.67542 -0.54931,0.68664 -1.34582,1.07116 -0.79651,0.38453 -1.73035,0.38453 -1.07117,0 -1.95007,-0.43946 -0.85144,-0.46692 -1.48316,-1.31836 1.0437,-0.76904 1.67542,-2.03247 0.63171,-1.29089 0.63171,-2.74658 0,-1.81274 -1.07116,-2.85644 -1.07117,-1.07117 -2.93885,-1.07117 -1.1261,0 -2.0874,0.43945 -0.93384,0.41199 -1.62048,1.18103 -0.65918,0.74158 -1.0437,1.78528 -0.35706,1.0437 -0.35706,2.27966 0,1.86768 0.90637,3.51563 0.90637,1.64795 2.27967,3.24097 1.37329,1.59301 2.9663,3.24096 1.59302,1.62049 2.96631,3.48816 1.37329,1.84021 2.27967,4.01001 0.90637,2.14233 0.90637,4.75159 0,2.77405 -1.15357,5.13611 -1.15356,2.33459 -3.2135,4.06494 -2.03247,1.70288 -4.80652,2.66418 -2.74658,0.98877 -5.96008,0.98877 -2.69165,0 -4.88892,-0.71411 -2.1698,-0.68665 -3.73535,-1.97754 -1.53808,-1.31836 -2.38952,-3.1311 -0.85144,-1.81275 -0.85144,-4.03748 0,-1.86767 0.60424,-3.48816 0.60425,-1.62048 1.64795,-2.80151 1.0437,-1.2085 2.47193,-1.89514 1.42822,-0.68665 3.0487,-0.68665 1.97754,0 3.32337,0.98877 1.34582,0.98877 1.67541,2.71912 -1.48315,0 -2.66418,0.41199 -1.18103,0.41198 -2.00501,1.15356 -0.82397,0.74158 -1.29089,1.81274 -0.43945,1.0437 -0.43945,2.36206 0,2.47193 1.42822,3.92762 1.45569,1.42822 3.90015,1.42822 1.48315,0 2.74658,-0.52185 1.26343,-0.54932 2.1698,-1.48316 0.90637,-0.93383 1.42822,-2.22473 0.52185,-1.29089 0.52185,-2.80151 0,-1.53809 -0.52185,-2.93884 -0.49438,-1.42823 -1.34582,-2.74659 -0.85145,-1.34582 -1.92261,-2.63671 -1.07117,-1.2909 -2.19727,-2.58179 -1.1261,-1.31836 -2.19726,-2.63672 -1.07117,-1.31836 -1.92261,-2.69165 -0.85144,-1.40076 -1.37329,-2.88391 -0.49439,-1.48316 -0.49439,-3.13111 0,-2.22473 0.93384,-4.0924 0.9613,-1.89514 2.63672,-3.26844 1.70288,-1.37329 4.01001,-2.14233 2.30713,-0.79651 5.02624,-0.79651 2.27967,0 4.11988,0.57678 1.84021,0.54932 3.1311,1.59302 1.31836,1.01624 2.03247,2.47193 0.71411,1.45568 0.71411,3.24096 z"
                      inkscape:connector-curvature="0"/>
                <path id="path3473"
                      style="font-style:normal;font-variant:normal;font-weight:normal;font-stretch:normal;font-size:56.25px;font-family:Lobster;-inkscape-font-specification:Lobster;text-align:center;text-anchor:middle;fill:#00d1b2;fill-opacity:1"
                      d="m 321.06116,369.3927 q -0.79651,2.27966 -1.78528,3.95508 -0.9613,1.67541 -2.03247,2.82898 -1.0437,1.15356 -2.1698,1.86767 -1.09863,0.71411 -2.14234,1.09864 -1.0437,0.38452 -2.005,0.52185 -0.93384,0.13733 -1.67542,0.13733 -1.26342,0 -2.36206,-0.38453 -1.09863,-0.38452 -1.9226,-1.20849 -0.79651,-0.82398 -1.26343,-2.0874 -0.46692,-1.26343 -0.46692,-3.04871 0,-0.76904 0.10986,-1.67541 0.10987,-0.93384 0.32959,-2.00501 l 6.01502,-28.17993 8.32214,-1.1261 -6.45447,30.3772 q -0.13733,0.46692 -0.19226,0.93384 -0.0275,0.43945 -0.0275,0.8789 0,1.18103 0.54931,1.64795 0.54932,0.43945 1.73035,0.43945 0.82397,0 1.59302,-0.35705 0.79651,-0.38452 1.45569,-1.0437 0.65918,-0.65918 1.18103,-1.56555 0.52185,-0.93384 0.85144,-2.00501 l 2.36206,0 z"
                      inkscape:connector-curvature="0"/>
                <path id="path3475"
                      style="font-style:normal;font-variant:normal;font-weight:normal;font-stretch:normal;font-size:56.25px;font-family:Lobster;-inkscape-font-specification:Lobster;text-align:center;text-anchor:middle;fill:#00d1b2;fill-opacity:1"
                      d="m 332.62427,343.87695 q 0,0.93384 -0.35706,1.75782 -0.35705,0.7965 -0.98877,1.40075 -0.60425,0.57678 -1.42822,0.93384 -0.79651,0.32959 -1.73035,0.32959 -0.93383,0 -1.75781,-0.32959 -0.79651,-0.35706 -1.40076,-0.93384 -0.60424,-0.60425 -0.9613,-1.40075 -0.32959,-0.82398 -0.32959,-1.75782 0,-0.93383 0.32959,-1.73034 0.35706,-0.82398 0.9613,-1.42823 0.60425,-0.63171 1.40076,-0.98877 0.82398,-0.35705 1.75781,-0.35705 0.93384,0 1.73035,0.35705 0.82397,0.35706 1.42822,0.98877 0.63172,0.60425 0.98877,1.42823 0.35706,0.79651 0.35706,1.73034 z m 3.48816,25.51575 q -0.79651,2.27966 -1.78528,3.95508 -0.96131,1.67541 -2.03247,2.82898 -1.0437,1.15356 -2.1698,1.86767 -1.09863,0.71411 -2.14234,1.09864 -1.0437,0.38452 -2.005,0.52185 -0.93384,0.13733 -1.67542,0.13733 -1.26342,0 -2.36206,-0.38453 -1.09863,-0.38452 -1.9226,-1.20849 -0.79651,-0.82398 -1.26343,-2.0874 -0.46692,-1.26343 -0.46692,-3.04871 0,-0.76904 0.10986,-1.67541 0.10987,-0.93384 0.32959,-2.00501 l 3.81775,-18.04504 8.10242,0 -4.03748,19.11621 q -0.13733,0.46692 -0.19226,0.93384 -0.0275,0.43945 -0.0275,0.8789 0,1.18103 0.54931,1.64795 0.54932,0.43945 1.73035,0.43945 0.82397,0 1.59302,-0.35705 0.79651,-0.38452 1.45569,-1.0437 0.65918,-0.65918 1.18103,-1.56555 0.52185,-0.93384 0.85144,-2.00501 l 2.36206,0 z"
                      inkscape:connector-curvature="0"/>
                <path id="path3477"
                      style="font-style:normal;font-variant:normal;font-weight:normal;font-stretch:normal;font-size:56.25px;font-family:Lobster;-inkscape-font-specification:Lobster;text-align:center;text-anchor:middle;fill:#00d1b2;fill-opacity:1"
                      d="m 365.66565,369.3927 q -0.79651,2.27966 -1.73035,3.92761 -0.93384,1.64795 -1.95007,2.77405 -0.98877,1.09863 -2.03247,1.78528 -1.0437,0.65918 -2.03247,1.01623 -0.98877,0.35706 -1.89514,0.46692 -0.90638,0.10987 -1.64795,0.10987 -2.3346,0 -3.76282,-1.2085 -1.42822,-1.23596 -1.75781,-3.62549 -0.63172,0.96131 -1.45569,1.89514 -0.79651,0.90638 -1.84021,1.64795 -1.01624,0.71411 -2.27966,1.18103 -1.26343,0.43946 -2.74659,0.43946 -1.45568,0 -2.80151,-0.46692 -1.34583,-0.46692 -2.38953,-1.53809 -1.0437,-1.07117 -1.67541,-2.80151 -0.63172,-1.73035 -0.63172,-4.22974 0,-1.92261 0.38453,-4.11987 0.38452,-2.19727 1.18103,-4.39453 0.79651,-2.19727 1.97754,-4.20227 1.20849,-2.03247 2.80151,-3.57056 1.62048,-1.56555 3.65295,-2.47192 2.03247,-0.93384 4.47693,-0.93384 2.38953,0 3.4607,0.82397 1.09863,0.82398 1.09863,2.03247 l 0,0.21973 2.74658,-12.9364 8.32214,-1.1261 -6.45446,30.3772 q -0.13733,0.46692 -0.19226,0.93384 -0.0549,0.43945 -0.0549,0.8789 0,1.18103 0.54932,1.64795 0.57678,0.43945 1.75781,0.43945 0.82398,0 1.51062,-0.35705 0.71411,-0.38452 1.26343,-1.0437 0.57678,-0.65918 1.01624,-1.56555 0.43945,-0.93384 0.76904,-2.00501 l 2.36206,0 z m -16.86401,0 2.74658,-12.88147 q -0.0549,-0.24719 -0.19226,-0.57678 -0.10987,-0.32959 -0.35706,-0.63172 -0.24719,-0.32959 -0.68664,-0.52185 -0.41199,-0.21972 -1.07117,-0.21972 -1.18103,0 -2.2522,0.76904 -1.0437,0.76904 -1.92261,2.05994 -0.8789,1.26342 -1.56555,2.88391 -0.68664,1.62048 -1.18103,3.35083 -0.46692,1.70288 -0.71411,3.37829 -0.24719,1.64795 -0.24719,2.96631 0,1.62049 0.30212,2.49939 0.30213,0.87891 0.71411,1.31836 0.43946,0.41199 0.93384,0.49439 0.49439,0.0824 0.87891,0.0824 0.57678,0 1.26343,-0.27465 0.71411,-0.30213 1.34582,-0.87891 0.65918,-0.57678 1.18103,-1.45569 0.54932,-0.87891 0.82398,-2.05994 l 0,-0.30212 z"
                      inkscape:connector-curvature="0"/>
                <path id="path3479"
                      style="font-style:normal;font-variant:normal;font-weight:normal;font-stretch:normal;font-size:56.25px;font-family:Lobster;-inkscape-font-specification:Lobster;text-align:center;text-anchor:middle;fill:#00d1b2;fill-opacity:1"
                      d="m 386.8418,369.3927 q -1.18103,1.97754 -2.71912,3.84522 -1.51062,1.86767 -3.43323,3.32336 -1.89514,1.45569 -4.22973,2.36206 -2.30713,0.87891 -5.08118,0.87891 -2.005,0 -3.62549,-0.49439 -1.62048,-0.52185 -2.77405,-1.59302 -1.15356,-1.07116 -1.75781,-2.74658 -0.63171,-1.70288 -0.63171,-4.09241 0,-1.62048 0.32959,-3.73535 0.32959,-2.11487 1.0437,-4.3396 0.71411,-2.22473 1.89514,-4.36706 1.18103,-2.14234 2.85645,-3.81775 1.67541,-1.70288 3.92761,-2.71912 2.2522,-1.0437 5.13611,-1.0437 1.89514,0 3.07617,0.46692 1.20849,0.43945 1.89514,1.18103 0.71411,0.74158 0.9613,1.73035 0.27466,0.9613 0.27466,2.005 0,2.44446 -1.07117,4.55933 -1.07116,2.0874 -2.88391,3.65295 -1.78527,1.56555 -4.11987,2.52686 -2.33459,0.9613 -4.86145,1.1261 -0.0549,0.63171 -0.10986,1.20849 -0.0275,0.54932 -0.0275,1.0437 0,1.42823 0.24719,2.36206 0.27466,0.90638 0.76905,1.42823 0.52185,0.52185 1.26342,0.74157 0.76905,0.19226 1.78528,0.19226 1.67542,0 3.02124,-0.43945 1.37329,-0.43945 2.55432,-1.20849 1.18103,-0.76905 2.22474,-1.81275 1.07116,-1.0437 2.14233,-2.22473 l 1.92261,0 z m -15.3534,-3.98254 q 1.59302,-0.10987 3.07618,-0.90638 1.48315,-0.7965 2.60925,-2.05993 1.1261,-1.2909 1.78528,-2.91138 0.68664,-1.64795 0.68664,-3.40576 0,-1.0437 -0.30212,-1.67542 -0.30213,-0.63171 -1.09863,-0.63171 -1.07117,0 -2.11487,1.0437 -1.01624,1.01624 -1.92261,2.66419 -0.90637,1.64795 -1.62048,3.73535 -0.68665,2.05993 -1.09864,4.14734 z"
                      inkscape:connector-curvature="0"/>
                <path id="path3481"
                      style="font-style:normal;font-variant:normal;font-weight:normal;font-stretch:normal;font-size:56.25px;font-family:Lobster;-inkscape-font-specification:Lobster;text-align:center;text-anchor:middle;fill:#00d1b2;fill-opacity:1"
                      d="m 382.83179,379.47266 5.96008,-28.125 8.10242,0 -0.71411,3.48816 q 0.74157,-0.65918 1.51062,-1.2909 0.76904,-0.63171 1.59301,-1.09863 0.85144,-0.49439 1.75782,-0.79651 0.90637,-0.30212 1.9226,-0.30212 0.96131,0 1.67542,0.35705 0.74158,0.35706 1.23596,0.93384 0.49439,0.57678 0.74158,1.34582 0.24719,0.76905 0.24719,1.59302 0,0.74158 -0.24719,1.48316 -0.24719,0.71411 -0.76905,1.29089 -0.49438,0.57678 -1.26342,0.9613 -0.76905,0.35706 -1.78528,0.35706 -0.79651,0 -1.23596,-0.27466 -0.41199,-0.27466 -0.63172,-0.68664 -0.21972,-0.41199 -0.32959,-0.87891 -0.0824,-0.49438 -0.19226,-0.90637 -0.10986,-0.41199 -0.30212,-0.68665 -0.1648,-0.27466 -0.57678,-0.27466 -1.2909,0 -2.1698,0.60425 -0.87891,0.57678 -1.92261,1.53809 l -4.5044,21.36841 -8.10241,0 z"
                      inkscape:connector-curvature="0"/>
            </g>
        </g>
        <g id="g4359" transform="translate(13.72272,4.8433532)">
            <rect y="852.39502" x="199.99997" height="10" width="10" id="rect4315" style="fill:#000000;fill-opacity:1"/>
            <rect y="852.36774" x="214.99846" height="10" width="10" id="rect4315-3"
                  style="fill:#000000;fill-opacity:1"/>
            <rect y="852.37762" x="230.01768" height="10" width="10" id="rect4315-6"
                  style="fill:#000000;fill-opacity:1"/>
            <rect y="852.3526" x="245.05391" height="10" width="10" id="rect4315-7"
                  style="fill:#000000;fill-opacity:1"/>
            <rect y="852.32104" x="260.0347" height="10" width="10" id="rect4315-7-5"
                  style="fill:#000000;fill-opacity:1"/>
        </g>
    </g>
</svg>