<?xml version="1.0" encoding="UTF-8" standalone="no"?>
<svg width="256" height="256" viewBox="0 0 500 500" version="1.1" xmlns="http://www.w3.org/2000/svg">
	<g id="text-carousel-slider" aria-label="Carousel Slider">
		<path
			d="m 73.957977,374.45746 q 0,-9.24683 2.838135,-13.41248 2.838135,-4.16565 8.422852,-4.16565 3.112793,0 5.859375,1.41907 v 3.479 q -2.792359,-1.51062 -5.630494,-1.51062 -7.736206,0 -7.736206,14.19068 0,7.69043 1.968384,10.94055 1.968384,3.25012 5.767822,3.25012 2.929688,0 5.859375,-1.78528 v 3.75367 q -2.746582,1.41906 -6.088256,1.41906 -5.722046,0 -8.514405,-4.02832 -2.746582,-4.02832 -2.746582,-13.5498 z"/>
		<path
			d="m 106.77963,366.72125 q 4.71497,0 6.45447,1.87683 1.7395,1.87683 1.7395,7.00379 v 15.97595 h -3.34167 l -0.0916,-3.52478 h -0.13732 q -2.19727,3.98254 -6.95801,3.98254 -3.06702,0 -4.94385,-1.9226 -1.876831,-1.96839 -1.876831,-5.35584 0,-4.2572 2.883911,-6.54602 2.88391,-2.33459 8.60596,-2.33459 h 2.24304 v -1.19019 q 0,-2.65503 -1.05286,-3.75366 -1.00708,-1.09863 -3.52478,-1.09863 -1.55639,0 -3.93677,0.59509 -2.38037,0.54931 -4.028315,1.28174 v -3.34168 q 1.647945,-0.73242 3.982545,-1.19018 2.33459,-0.45777 3.98254,-0.45777 z m 4.57764,11.94763 h -2.24304 q -7.96509,0 -7.96509,5.85938 0,2.10571 1.05286,3.25012 1.09863,1.09863 2.92968,1.09863 2.79236,0 4.48609,-2.24304 1.7395,-2.24304 1.7395,-6.31714 z"/>
		<path
			d="m 126.96701,367.17902 v 4.66919 h 0.13733 q 2.88391,-5.12696 8.05664,-5.12696 1.7395,0 3.25012,0.45777 v 3.29589 q -1.64795,-0.50354 -3.25012,-0.50354 -3.43323,0 -5.72205,2.83814 -2.28881,2.83813 -2.28881,7.50732 v 11.26099 h -3.70789 v -24.3988 z"/>
		<path
			d="m 144.0416,379.40131 q 0,-12.68006 9.38415,-12.68006 9.38416,0 9.38416,12.68006 0,12.63427 -9.38416,12.63427 -9.38415,0 -9.38415,-12.63427 z m 5.17272,7.27844 q 1.3733,2.10571 4.21143,2.10571 2.83814,0 4.16565,-2.10571 1.37329,-2.15149 1.37329,-7.27844 0,-5.17273 -1.37329,-7.27845 -1.32751,-2.15149 -4.16565,-2.15149 -2.83813,0 -4.21143,2.15149 -1.32751,2.10572 -1.32751,7.27845 0,5.12695 1.32751,7.27844 z"/>
		<path
			d="m 168.21152,383.10919 v -15.93017 h 3.57055 v 15.1062 q 0,3.89099 0.86975,5.17273 0.86976,1.23596 3.2959,1.23596 2.28882,0 3.84522,-2.56348 1.55639,-2.60925 1.55639,-7.14111 v -11.8103 h 3.70789 v 24.3988 h -3.479 l -0.0916,-3.52478 h -0.0916 q -0.86975,1.87683 -2.60925,2.92969 -1.7395,1.05285 -3.79944,1.05285 -3.61633,0 -5.21851,-2.01416 -1.55639,-2.01416 -1.55639,-6.91223 z"/>
		<path
			d="m 200.52963,369.83405 q -4.48608,0 -4.48608,3.43322 0,1.60218 0.9613,2.56348 1.00708,0.9613 3.52478,1.64795 4.98963,1.41907 6.5918,2.97546 1.60217,1.5564 1.60217,4.80652 0,3.20435 -2.19726,4.98963 -2.19727,1.78527 -6.22559,1.78527 -4.02832,0 -7.73621,-1.87683 v -3.75366 q 3.66211,2.47192 7.27845,2.47192 5.17273,0 5.17273,-3.66211 0,-1.7395 -1.00708,-2.65502 -1.00708,-0.96131 -3.93677,-1.78528 -4.30298,-1.23596 -6.04248,-2.88391 -1.69373,-1.69373 -1.69373,-4.62342 0,-3.06701 2.01416,-4.80652 2.05994,-1.7395 5.95093,-1.7395 3.93677,0 7.50732,1.64795 v 3.47901 q -3.70788,-2.01416 -7.27844,-2.01416 z"/>
		<path
			d="m 218.47397,380.59149 q 0.1831,4.34876 1.78528,6.27136 1.60217,1.92261 4.66919,1.92261 2.83813,0 6.31713,-1.69372 v 3.75366 q -3.479,1.19018 -6.59179,1.19018 -10.0708,0 -10.0708,-12.68005 0,-6.5918 2.33459,-9.61304 2.38037,-3.02124 7.04956,-3.02124 4.2572,0 6.31714,2.92969 2.10571,2.88391 2.10571,9.47571 0,0.50354 -0.0916,1.46484 z m 0,-3.11279 h 10.2539 q -0.0458,-7.50733 -4.76074,-7.50733 -2.65503,0 -3.98254,1.69373 -1.32752,1.64795 -1.51062,5.8136 z"/>
		<path
			d="m 248.64059,384.52826 q 0,3.11279 0.45777,3.70789 0.50354,0.59509 3.02124,0.59509 1.51062,0 3.479,-0.27466 v 3.25012 q -2.19726,0.22888 -3.98254,0.22888 -4.21143,0 -5.53894,-1.32751 -1.28174,-1.37329 -1.28174,-5.72205 v -24.44458 h -6.04248 v -3.20434 h 9.88769 z"/>
		<path
			d="m 294.50851,360.26678 q -2.19726,0 -3.61633,1.41907 -1.41907,1.41907 -1.41907,3.61634 0,2.33459 1.00708,3.89099 1.00708,1.51062 3.34168,2.56347 5.2185,2.3346 7.18689,4.8523 1.96838,2.47192 1.96838,6.50024 0,4.44031 -2.42615,6.68335 -2.42614,2.24304 -6.958,2.24304 -4.25721,0 -7.73621,-2.60925 v -4.44031 q 3.75366,3.66211 7.96509,3.66211 5.31006,0 5.31006,-5.53894 0,-2.56347 -1.23596,-4.2572 -1.23597,-1.69373 -4.0741,-2.97546 -4.39453,-1.96839 -6.31714,-4.48609 -1.87683,-2.5177 -1.87683,-6.08825 0,-3.75367 2.38037,-6.08826 2.38037,-2.3346 6.27136,-2.3346 2.47193,0 4.0741,0.36621 1.60217,0.36622 3.66211,1.51062 v 4.21143 q -3.61633,-2.70081 -7.50733,-2.70081 z"/>
		<path
			d="m 318.95309,384.52826 q 0,3.11279 0.45777,3.70789 0.50354,0.59509 3.02124,0.59509 1.51062,0 3.479,-0.27466 v 3.25012 q -2.19726,0.22888 -3.98254,0.22888 -4.21143,0 -5.53894,-1.32751 -1.28174,-1.37329 -1.28174,-5.72205 v -24.44458 h -6.04248 v -3.20434 h 9.88769 z"/>
		<path
			d="m 344.03854,367.17902 v 21.19445 h 5.08118 v 3.20435 h -15.47241 v -3.20435 h 6.54602 v -17.99011 h -5.12695 v -3.20434 z m -4.80651,-5.6305 v -5.63049 h 4.80651 v 5.63049 z"/>
		<path
			d="m 369.35287,357.3371 h 3.66211 v 34.24072 h -3.43322 l -0.0916,-3.52478 h -0.0916 q -2.5177,3.98254 -6.45447,3.98254 -3.70788,0 -5.95092,-3.15857 -2.24305,-3.15857 -2.24305,-9.52148 0,-12.63428 8.19397,-12.63428 4.25721,0 6.27137,3.98255 h 0.13732 z m -10.89477,22.01843 q 0,4.62341 1.46484,6.91223 1.46485,2.24304 3.98255,2.24304 2.38037,0 3.89099,-2.28882 1.55639,-2.33459 1.55639,-6.63757 v -0.45776 q 0,-4.2572 -1.55639,-6.54602 -1.51062,-2.3346 -3.89099,-2.3346 -5.44739,0 -5.44739,9.1095 z"/>
		<path
			d="m 382.53647,380.59149 q 0.1831,4.34876 1.78528,6.27136 1.60217,1.92261 4.66919,1.92261 2.83813,0 6.31713,-1.69372 v 3.75366 q -3.479,1.19018 -6.59179,1.19018 -10.0708,0 -10.0708,-12.68005 0,-6.5918 2.33459,-9.61304 2.38037,-3.02124 7.04956,-3.02124 4.2572,0 6.31714,2.92969 2.10571,2.88391 2.10571,9.47571 0,0.50354 -0.0915,1.46484 z m 0,-3.11279 h 10.2539 q -0.0458,-7.50733 -4.76074,-7.50733 -2.65503,0 -3.98254,1.69373 -1.32752,1.64795 -1.51062,5.8136 z"/>
		<path
			d="m 408.21701,367.17902 v 4.66919 h 0.13733 q 2.88391,-5.12696 8.05664,-5.12696 1.7395,0 3.25012,0.45777 v 3.29589 q -1.64795,-0.50354 -3.25012,-0.50354 -3.43323,0 -5.72205,2.83814 -2.28881,2.83813 -2.28881,7.50732 v 11.26099 h -3.70789 v -24.3988 z"/>
	</g>
	<g id="carousel">
		<rect
			y="642.17731"
			x="79.433174"
			height="200"
			width="100"
			style="display:inline;fill:#f44336;fill-opacity:1"
			transform="translate(0,-552.36217)"/>
		<rect
			y="642.17725"
			x="199.45549"
			height="200"
			width="100"
			style="display:inline;fill:#4caf50;fill-opacity:1"
			transform="translate(0,-552.36217)"/>
		<rect
			y="642.17731"
			x="319.45554"
			height="200"
			width="100"
			style="display:inline;fill:#2196f3;fill-opacity:1"
			transform="translate(0,-552.36217)"/>
	</g>
	<g id="pagination">
		<g transform="translate(13.72272,-547.51881)">
			<rect
				y="852.39502"
				x="199.99997"
				height="10"
				width="10"
				style="fill:#000000;fill-opacity:1"/>
			<rect
				y="852.36774"
				x="214.99846"
				height="10"
				width="10"
				style="fill:#000000;fill-opacity:1"/>
			<rect
				y="852.37762"
				x="230.01768"
				height="10"
				width="10"
				style="fill:#000000;fill-opacity:1"/>
			<rect
				y="852.3526"
				x="245.05391"
				height="10"
				width="10"
				style="fill:#000000;fill-opacity:1"/>
			<rect
				y="852.32104"
				x="260.0347"
				height="10"
				width="10"
				style="fill:#000000;fill-opacity:1"/>
		</g>
	</g>
	<g id="navigation">
		<path
			d="M 6,15 11,10 6,5 7,3 14,10 7,17 Z"
			id="right-arrow"
			transform="matrix(2.5,0,0,2.5,419.44451,169.81504)"/>
		<path
			d="m 14,5 -5,5 5,5 -1,2 -7,-7 7,-7 z"
			id="left-arrow"
			transform="matrix(2.5,0,0,2.5,29.352314,169.81504)"/>
	</g>
</svg>
