<?xml version="1.0" encoding="UTF-8"?>
<svg width="256" height="256" version="1.1" viewBox="0 0 500 500" xmlns="http://www.w3.org/2000/svg">
	<g transform="translate(0 -552.36)">
		<g transform="translate(9.4332 -.18496)">
			<g>
				<rect x="70" y="642.36" width="100" height="200" fill="#f44336"/>
				<rect x="190.02" y="642.36" width="100" height="200" fill="#4caf50"/>
				<rect x="310.02" y="642.36" width="100" height="200" fill="#2196f3"/>
			</g>
			<g transform="matrix(2.5 0 0 2.5 19.919 722.36)">
				<rect width="20" height="20" fill="none"/>
				<path d="m14 5-5 5 5 5-1 2-7-7 7-7z"/>
			</g>
			<g transform="matrix(2.5 0 0 2.5 410.01 722.36)">
				<rect width="20" height="20" fill="none"/>
				<path d="m6 15 5-5-5-5 1-2 7 7-7 7z"/>
			</g>
		</g>
		<g transform="matrix(1.0251 0 0 1.9523 2.3335 231.47)" fill="#00d1b2" stroke-width="1px">
			<g fill="#00d1b2">
				<path
					d="m102.05 369.91q-1.1261 2.829-3.0487 4.834-1.9226 1.9775-4.1748 3.241-2.2247 1.236-4.5593 1.8128-2.3071 0.57678-4.2572 0.57678-3.1311 0-5.4382-0.74158-2.3071-0.74158-3.8452-2.3895-1.5106-1.6479-2.2797-4.2847-0.74158-2.6367-0.74158-6.427 0-1.9226 0.21973-4.1748 0.24719-2.2797 0.76904-4.6967 0.52185-2.417 1.3184-4.8614 0.82398-2.4444 1.9775-4.6966 1.1536-2.2797 2.6642-4.2572t3.4058-3.4332q1.8951-1.4557 4.2023-2.2797 2.3071-0.85144 5.0812-0.85144 1.9501 0 3.653 0.43945 1.7303 0.41199 2.9938 1.3184 1.2909 0.90637 2.005 2.3346 0.74158 1.4282 0.74158 3.4332 0 1.1261-0.21972 2.0874-0.19227 0.93384-0.68665 1.648-0.46692 0.68665-1.236 1.0712-0.74158 0.38452-1.8127 0.38452-0.65918 0-1.5381-0.24719-0.85144-0.24719-1.6479-1.2085 0.49438-0.24719 0.9613-0.76904 0.46692-0.54932 0.82398-1.236 0.35706-0.71411 0.57678-1.5381 0.21973-0.82397 0.21973-1.648 0-0.65918-0.19226-1.2909-0.1648-0.63171-0.57678-1.0986-0.41199-0.46692-1.0712-0.74158-0.65918-0.30213-1.593-0.30213-1.5656 0-3.0487 1.1536-1.4557 1.1536-2.774 3.1311-1.2909 1.9501-2.3895 4.5593-1.0712 2.6092-1.8402 5.5206t-1.2085 5.9876q-0.43945 3.0762-0.43945 5.9326 0 1.9501 0.27466 3.5706 0.30212 1.593 1.0437 2.7466 0.76904 1.1536 2.0599 1.8128 1.3184 0.63171 3.3783 0.63171 3.3234 0 6.1523-1.4832 2.829-1.4832 4.8065-4.1473l1.2909 0.57678z"/>
				<path
					d="m132.59 369.39q-0.79651 2.2797-1.7304 3.9551-0.93384 1.6754-1.9501 2.829-0.98877 1.1536-2.0325 1.8677t-2.0325 1.0986q-0.98877 0.38452-1.8951 0.52185-0.90638 0.13733-1.648 0.13733-2.3895 0-3.8178-1.2909-1.4008-1.3184-1.7029-3.8727-0.68665 0.96131-1.5106 1.8951-0.82398 0.90638-1.8402 1.648-1.0162 0.71411-2.2797 1.181-1.236 0.43946-2.7466 0.43946-1.4557 0-2.8015-0.46692-1.3458-0.46692-2.3895-1.5381t-1.6754-2.8015q-0.63172-1.7304-0.63172-4.2297 0-1.9226 0.38452-4.1199 0.38453-2.1973 1.181-4.3945 0.79651-2.1973 1.9775-4.2023 1.2085-2.0325 2.8015-3.5706 1.6205-1.5656 3.653-2.4719 2.0325-0.93384 4.4769-0.93384 2.3895 0 3.4607 0.82397 1.0986 0.82398 1.0986 2.0325v0.41199l0.60424-2.9938h8.1024l-4.0375 19.116q-0.13733 0.46692-0.19227 0.93384-0.0549 0.43945-0.0549 0.8789 0 2.417 2.3071 2.417 0.82398 0 1.5106-0.41198 0.71411-0.43946 1.2909-1.1536 0.57678-0.71411 1.0162-1.6754 0.43945-0.98877 0.74158-2.0599h2.3621zm-14.172-12.689q0-0.24719-0.10986-0.60425-0.10986-0.38452-0.38452-0.71411-0.24719-0.35705-0.68665-0.57678-0.43945-0.24719-1.1261-0.24719-1.181 0-2.2522 0.76904-1.0437 0.76904-1.9226 2.0599-0.8789 1.2634-1.5656 2.8839-0.68665 1.6205-1.181 3.3508-0.46692 1.7029-0.71411 3.3783-0.24719 1.648-0.24719 2.9663 0 1.6205 0.30212 2.4994 0.30212 0.87891 0.71411 1.3184 0.43945 0.41199 0.93384 0.49439 0.49438 0.0824 0.87891 0.0824 0.63171 0 1.3184-0.30212 0.71412-0.32959 1.3458-0.93384 0.65918-0.63171 1.181-1.5656 0.54932-0.93384 0.82397-2.1698l2.6916-12.689z"/>
				<path
					d="m128.06 379.47 5.9601-28.125h8.1024l-0.71411 3.4882q0.74157-0.65918 1.5106-1.2909 0.76904-0.63171 1.593-1.0986 0.85144-0.49439 1.7578-0.79651 0.90637-0.30212 1.9226-0.30212 0.96131 0 1.6754 0.35705 0.74158 0.35706 1.236 0.93384 0.49439 0.57678 0.74158 1.3458 0.24719 0.76905 0.24719 1.593 0 0.74158-0.24719 1.4832-0.24719 0.71411-0.76904 1.2909-0.49439 0.57678-1.2634 0.9613-0.76905 0.35706-1.7853 0.35706-0.79651 0-1.236-0.27466-0.41199-0.27466-0.63172-0.68664-0.21972-0.41199-0.32959-0.87891-0.0824-0.49438-0.19226-0.90637t-0.30212-0.68665q-0.1648-0.27466-0.57678-0.27466-1.2909 0-2.1698 0.60425-0.87891 0.57678-1.9226 1.5381l-4.5044 21.368h-8.1024z"/>
				<path
					d="m183.02 358.1q-1.6479 1.7303-4.2572 2.9388-2.6092 1.2085-5.7129 1.7304-0.32959 3.9001-1.5106 7.0312-1.1536 3.1311-2.9388 5.3284-1.7853 2.1973-4.0924 3.3783t-4.8889 1.181q-1.9501 0-3.6255-0.46692-1.648-0.49438-2.8564-1.5381-1.181-1.0712-1.8402-2.7466-0.68664-1.7029-0.68664-4.1199 0-1.648 0.35705-3.7354 0.32959-2.1149 1.0712-4.3396 0.76904-2.2247 1.9501-4.3396 1.2085-2.1423 2.9114-3.8178 1.7304-1.6754 3.9825-2.6916 2.2522-1.0437 5.1361-1.0437 7.2235 0 7.2235 8.9813v0.0549q0.13733 0.0549 0.24719 0.0549 0.13733 0 0.35706 0 0.98877 0 2.1149-0.27466 1.1536-0.30212 2.3071-0.76904 1.1536-0.46692 2.2522-1.0712 1.0986-0.63171 2.005-1.2634l0.49438 1.5381zm-14.639 4.834q-0.8789-0.21972-1.2085-0.85144-0.30213-0.65918-0.30213-1.5106 0-1.181 0.46692-1.9226 0.49439-0.76904 1.2909-1.1261-0.0549-0.90638-0.19226-1.5106-0.13733-0.63172-0.38452-1.0162-0.24719-0.41199-0.63171-0.57678-0.35706-0.1648-0.93384-0.1648-1.0162 0-1.9501 0.79651-0.93384 0.76904-1.7853 2.0599-0.82398 1.2909-1.5381 2.9663-0.68664 1.648-1.181 3.4058-0.49438 1.7578-0.76904 3.4882-0.27466 1.7029-0.27466 3.1036 0 1.4008 0.13733 2.2797 0.1648 0.87891 0.49439 1.4008 0.35705 0.49438 0.90637 0.68664 0.54931 0.19226 1.3458 0.19226 1.0162 0 2.0325-0.90637 1.0437-0.90637 1.9226-2.4719 0.87891-1.5656 1.5381-3.7079 0.68664-2.1423 1.0162-4.6143z"/>
				<path
					d="m206.89 369.39q-0.79651 2.2797-1.7303 3.9551-0.93384 1.6754-1.9501 2.829-0.98877 1.1536-2.0325 1.8677t-2.0325 1.0986q-0.98877 0.38452-1.8951 0.52185t-1.648 0.13733q-2.417 0-3.8452-1.3184-1.4282-1.3458-1.7304-4.01-1.0712 1.7303-2.1698 2.774-1.0986 1.0437-2.1698 1.6205t-2.0874 0.74158q-1.0162 0.19226-1.8952 0.19226-1.2634 0-2.3621-0.38453-1.0986-0.38452-1.9226-1.2085-0.79651-0.82398-1.2634-2.0874-0.46692-1.2634-0.46692-3.0487 0-0.76904 0.10986-1.6754 0.10987-0.93384 0.32959-2.005l3.8178-18.045h8.1024l-4.0375 19.116q-0.16479 0.8789-0.16479 1.593 0 0.96131 0.35705 1.648 0.35706 0.65918 1.3184 0.65918 0.82398 0 1.5106-0.35705 0.68665-0.38452 1.236-1.0437 0.57678-0.65918 0.98877-1.5656 0.43945-0.93384 0.76904-2.005l3.8178-18.045h8.1024l-4.0375 19.116q-0.13733 0.46692-0.19226 0.93384-0.0549 0.43945-0.0549 0.8789 0 1.181 0.54931 1.648 0.57679 0.43945 1.7578 0.43945 0.82397 0 1.5106-0.35705 0.71411-0.38452 1.2909-1.0437t1.0162-1.5656q0.43946-0.93384 0.74158-2.005h2.3621z"/>
				<path
					d="m228.42 369.39q-2.1973 2.5543-4.422 4.2297-2.1973 1.648-4.1748 2.8015-0.8789 0.93384-1.9775 1.593-1.0712 0.63171-2.2522 1.0437-1.1536 0.38452-2.3621 0.54932-1.181 0.19226-2.2522 0.19226-2.1149 0-3.6804-0.63172-1.5381-0.65918-2.5543-1.6754-1.0162-1.0437-1.4832-2.3071-0.49438-1.2909-0.49438-2.5818 0-0.98877 0.27466-1.8127 0.24719-0.85144 0.65918-1.5106 0.41198-0.65918 0.93383-1.1261 0.54932-0.49439 1.1261-0.76904 2.3621-4.2297 3.9826-8.3496 1.6205-4.1473 2.9388-8.3222l8.3221-1.0986q0.1648 3.653 0.30213 6.3446 0.16479 2.6642 0.30212 4.6417 0.13733 1.9501 0.24719 3.3234 0.10987 1.3733 0.19226 2.4445 0.10987 1.0437 0.13733 1.9226 0.0549 0.85144 0.0549 1.7853 0 0.63171-0.0549 1.1536-0.0275 0.52185-0.16479 0.98877 1.236-0.71411 2.2247-1.4008 1.0162-0.71411 1.8127-1.4282h2.3621zm-22.659 2.0325q0 1.9775 0.76905 2.9663 0.79651 0.9613 2.6642 0.9613 0.93384 0 1.8128-0.24719 0.8789-0.27466 1.5656-0.87891 0.68664-0.63171 1.0986-1.6205t0.41199-2.4719q0-0.71411-0.0549-1.3733-0.0275-0.68665-0.0824-1.4282-0.0549-0.76904-0.1648-1.7029-0.0824-0.93384-0.21972-2.1698-0.10987-1.236-0.2472-2.8564-0.13732-1.6205-0.30212-3.7903-0.85144 2.7466-2.005 5.3284-1.1536 2.5818-2.5543 5.3009 0.54932 0.30212 0.90638 0.76904 0.38452 0.46692 0.38452 1.181 0 0.52185-0.1648 1.0162-0.16479 0.49438-0.49438 0.90637-0.32959 0.38452-0.79651 0.63171-0.43945 0.21973-1.0162 0.21973-0.46692 0-0.8789-0.13733-0.41199-0.13733-0.63172-0.60425z"/>
				<path
					d="m249.62 369.39q-1.181 1.9775-2.7191 3.8452-1.5106 1.8677-3.4332 3.3234-1.8951 1.4557-4.2297 2.3621-2.3071 0.87891-5.0812 0.87891-2.005 0-3.6255-0.49439-1.6205-0.52185-2.774-1.593-1.1536-1.0712-1.7578-2.7466-0.63171-1.7029-0.63171-4.0924 0-1.6205 0.32959-3.7354t1.0437-4.3396 1.8951-4.3671q1.181-2.1423 2.8564-3.8178 1.6754-1.7029 3.9276-2.7191 2.2522-1.0437 5.1361-1.0437 1.8951 0 3.0762 0.46692 1.2085 0.43945 1.8951 1.181 0.71411 0.74158 0.96131 1.7304 0.27465 0.9613 0.27465 2.005 0 2.4445-1.0712 4.5593-1.0712 2.0874-2.8839 3.653-1.7853 1.5656-4.1199 2.5269-2.3346 0.9613-4.8614 1.1261-0.0549 0.63171-0.10986 1.2085-0.0275 0.54932-0.0275 1.0437 0 1.4282 0.2472 2.3621 0.27465 0.90638 0.76904 1.4282 0.52185 0.52185 1.2634 0.74157 0.76904 0.19226 1.7853 0.19226 1.6754 0 3.0212-0.43945 1.3733-0.43945 2.5543-1.2085 1.181-0.76905 2.2247-1.8128 1.0712-1.0437 2.1423-2.2247h1.9226zm-15.353-3.9825q1.593-0.10987 3.0762-0.90638 1.4832-0.7965 2.6092-2.0599 1.1261-1.2909 1.7853-2.9114 0.68664-1.648 0.68664-3.4058 0-1.0437-0.30212-1.6754-0.30212-0.63171-1.0986-0.63171-1.0712 0-2.1149 1.0437-1.0162 1.0162-1.9226 2.6642t-1.6205 3.7354q-0.68665 2.0599-1.0986 4.1473z"/>
				<path
					d="m253.66 341.1 8.3222-1.1261-6.4545 30.377q-0.13733 0.46692-0.19226 0.87891-0.0549 0.38452-0.0549 0.76904 0 0.96131 0.49438 1.6205 0.49439 0.63171 1.8128 0.63171 0.79651 0 1.1536-0.10986 0.35706-0.10987 0.65918-0.2472-0.10986 1.5106-0.68664 2.6367-0.54932 1.0986-1.4008 1.8402-0.85144 0.71411-1.9226 1.0712t-2.1698 0.35706q-1.2634 0-2.3621-0.38453-1.0986-0.41198-1.9226-1.236-0.79651-0.85144-1.2634-2.1423-0.46692-1.2909-0.46692-3.1036 0-0.74158 0.10986-1.648 0.10986-0.93384 0.32959-2.005l6.015-28.18z"/>
				<path
					d="m302.69 344.87q0 1.181-0.32959 2.1698-0.30212 0.96131-0.85144 1.6754-0.54931 0.68664-1.3458 1.0712-0.79651 0.38453-1.7304 0.38453-1.0712 0-1.9501-0.43946-0.85144-0.46692-1.4832-1.3184 1.0437-0.76904 1.6754-2.0325 0.63171-1.2909 0.63171-2.7466 0-1.8127-1.0712-2.8564-1.0712-1.0712-2.9388-1.0712-1.1261 0-2.0874 0.43945-0.93384 0.41199-1.6205 1.181-0.65918 0.74158-1.0437 1.7853-0.35706 1.0437-0.35706 2.2797 0 1.8677 0.90637 3.5156t2.2797 3.241q1.3733 1.593 2.9663 3.241 1.593 1.6205 2.9663 3.4882 1.3733 1.8402 2.2797 4.01 0.90637 2.1423 0.90637 4.7516 0 2.774-1.1536 5.1361-1.1536 2.3346-3.2135 4.0649-2.0325 1.7029-4.8065 2.6642-2.7466 0.98877-5.9601 0.98877-2.6916 0-4.8889-0.71411-2.1698-0.68665-3.7354-1.9775-1.5381-1.3184-2.3895-3.1311-0.85144-1.8128-0.85144-4.0375 0-1.8677 0.60424-3.4882 0.60425-1.6205 1.648-2.8015 1.0437-1.2085 2.4719-1.8951 1.4282-0.68665 3.0487-0.68665 1.9775 0 3.3234 0.98877 1.3458 0.98877 1.6754 2.7191-1.4832 0-2.6642 0.41199-1.181 0.41198-2.005 1.1536-0.82397 0.74158-1.2909 1.8127-0.43945 1.0437-0.43945 2.3621 0 2.4719 1.4282 3.9276 1.4557 1.4282 3.9002 1.4282 1.4832 0 2.7466-0.52185 1.2634-0.54932 2.1698-1.4832 0.90637-0.93383 1.4282-2.2247 0.52185-1.2909 0.52185-2.8015 0-1.5381-0.52185-2.9388-0.49438-1.4282-1.3458-2.7466-0.85145-1.3458-1.9226-2.6367-1.0712-1.2909-2.1973-2.5818-1.1261-1.3184-2.1973-2.6367-1.0712-1.3184-1.9226-2.6916-0.85144-1.4008-1.3733-2.8839-0.49439-1.4832-0.49439-3.1311 0-2.2247 0.93384-4.0924 0.9613-1.8951 2.6367-3.2684 1.7029-1.3733 4.01-2.1423 2.3071-0.79651 5.0262-0.79651 2.2797 0 4.1199 0.57678 1.8402 0.54932 3.1311 1.593 1.3184 1.0162 2.0325 2.4719 0.71411 1.4557 0.71411 3.241z"/>
				<path
					d="m321.06 369.39q-0.79651 2.2797-1.7853 3.9551-0.9613 1.6754-2.0325 2.829-1.0437 1.1536-2.1698 1.8677-1.0986 0.71411-2.1423 1.0986-1.0437 0.38452-2.005 0.52185-0.93384 0.13733-1.6754 0.13733-1.2634 0-2.3621-0.38453-1.0986-0.38452-1.9226-1.2085-0.79651-0.82398-1.2634-2.0874-0.46692-1.2634-0.46692-3.0487 0-0.76904 0.10986-1.6754 0.10987-0.93384 0.32959-2.005l6.015-28.18 8.3221-1.1261-6.4545 30.377q-0.13733 0.46692-0.19226 0.93384-0.0275 0.43945-0.0275 0.8789 0 1.181 0.54931 1.648 0.54932 0.43945 1.7304 0.43945 0.82397 0 1.593-0.35705 0.79651-0.38452 1.4557-1.0437t1.181-1.5656q0.52185-0.93384 0.85144-2.005h2.3621z"/>
				<path
					d="m332.62 343.88q0 0.93384-0.35706 1.7578-0.35705 0.7965-0.98877 1.4008-0.60425 0.57678-1.4282 0.93384-0.79651 0.32959-1.7304 0.32959-0.93383 0-1.7578-0.32959-0.79651-0.35706-1.4008-0.93384-0.60424-0.60425-0.9613-1.4008-0.32959-0.82398-0.32959-1.7578 0-0.93383 0.32959-1.7303 0.35706-0.82398 0.9613-1.4282 0.60425-0.63171 1.4008-0.98877 0.82398-0.35705 1.7578-0.35705 0.93384 0 1.7304 0.35705 0.82397 0.35706 1.4282 0.98877 0.63172 0.60425 0.98877 1.4282 0.35706 0.79651 0.35706 1.7303zm3.4882 25.516q-0.79651 2.2797-1.7853 3.9551-0.96131 1.6754-2.0325 2.829-1.0437 1.1536-2.1698 1.8677-1.0986 0.71411-2.1423 1.0986-1.0437 0.38452-2.005 0.52185-0.93384 0.13733-1.6754 0.13733-1.2634 0-2.3621-0.38453-1.0986-0.38452-1.9226-1.2085-0.79651-0.82398-1.2634-2.0874-0.46692-1.2634-0.46692-3.0487 0-0.76904 0.10986-1.6754 0.10987-0.93384 0.32959-2.005l3.8178-18.045h8.1024l-4.0375 19.116q-0.13733 0.46692-0.19226 0.93384-0.0275 0.43945-0.0275 0.8789 0 1.181 0.54931 1.648 0.54932 0.43945 1.7304 0.43945 0.82397 0 1.593-0.35705 0.79651-0.38452 1.4557-1.0437t1.181-1.5656q0.52185-0.93384 0.85144-2.005h2.3621z"/>
				<path
					d="m365.67 369.39q-0.79651 2.2797-1.7304 3.9276t-1.9501 2.774q-0.98877 1.0986-2.0325 1.7853-1.0437 0.65918-2.0325 1.0162-0.98877 0.35706-1.8951 0.46692-0.90638 0.10987-1.648 0.10987-2.3346 0-3.7628-1.2085-1.4282-1.236-1.7578-3.6255-0.63172 0.96131-1.4557 1.8951-0.79651 0.90638-1.8402 1.648-1.0162 0.71411-2.2797 1.181-1.2634 0.43946-2.7466 0.43946-1.4557 0-2.8015-0.46692t-2.3895-1.5381-1.6754-2.8015q-0.63172-1.7304-0.63172-4.2297 0-1.9226 0.38453-4.1199 0.38452-2.1973 1.181-4.3945 0.79651-2.1973 1.9775-4.2023 1.2085-2.0325 2.8015-3.5706 1.6205-1.5656 3.653-2.4719 2.0325-0.93384 4.4769-0.93384 2.3895 0 3.4607 0.82397 1.0986 0.82398 1.0986 2.0325v0.21973l2.7466-12.936 8.3221-1.1261-6.4545 30.377q-0.13733 0.46692-0.19226 0.93384-0.0549 0.43945-0.0549 0.8789 0 1.181 0.54932 1.648 0.57678 0.43945 1.7578 0.43945 0.82398 0 1.5106-0.35705 0.71411-0.38452 1.2634-1.0437 0.57678-0.65918 1.0162-1.5656 0.43945-0.93384 0.76904-2.005h2.3621zm-16.864 0 2.7466-12.881q-0.0549-0.24719-0.19226-0.57678-0.10987-0.32959-0.35706-0.63172-0.24719-0.32959-0.68664-0.52185-0.41199-0.21972-1.0712-0.21972-1.181 0-2.2522 0.76904-1.0437 0.76904-1.9226 2.0599-0.8789 1.2634-1.5656 2.8839-0.68664 1.6205-1.181 3.3508-0.46692 1.7029-0.71411 3.3783-0.24719 1.648-0.24719 2.9663 0 1.6205 0.30212 2.4994 0.30213 0.87891 0.71411 1.3184 0.43946 0.41199 0.93384 0.49439 0.49439 0.0824 0.87891 0.0824 0.57678 0 1.2634-0.27465 0.71411-0.30213 1.3458-0.87891 0.65918-0.57678 1.181-1.4557 0.54932-0.87891 0.82398-2.0599v-0.30212z"/>
				<path
					d="m386.84 369.39q-1.181 1.9775-2.7191 3.8452-1.5106 1.8677-3.4332 3.3234-1.8951 1.4557-4.2297 2.3621-2.3071 0.87891-5.0812 0.87891-2.005 0-3.6255-0.49439-1.6205-0.52185-2.774-1.593-1.1536-1.0712-1.7578-2.7466-0.63171-1.7029-0.63171-4.0924 0-1.6205 0.32959-3.7354t1.0437-4.3396 1.8951-4.3671q1.181-2.1423 2.8564-3.8178 1.6754-1.7029 3.9276-2.7191 2.2522-1.0437 5.1361-1.0437 1.8951 0 3.0762 0.46692 1.2085 0.43945 1.8951 1.181 0.71411 0.74158 0.9613 1.7304 0.27466 0.9613 0.27466 2.005 0 2.4445-1.0712 4.5593-1.0712 2.0874-2.8839 3.653-1.7853 1.5656-4.1199 2.5269-2.3346 0.9613-4.8614 1.1261-0.0549 0.63171-0.10986 1.2085-0.0275 0.54932-0.0275 1.0437 0 1.4282 0.24719 2.3621 0.27466 0.90638 0.76905 1.4282 0.52185 0.52185 1.2634 0.74157 0.76905 0.19226 1.7853 0.19226 1.6754 0 3.0212-0.43945 1.3733-0.43945 2.5543-1.2085 1.181-0.76905 2.2247-1.8128 1.0712-1.0437 2.1423-2.2247h1.9226zm-15.353-3.9825q1.593-0.10987 3.0762-0.90638 1.4832-0.7965 2.6092-2.0599 1.1261-1.2909 1.7853-2.9114 0.68664-1.648 0.68664-3.4058 0-1.0437-0.30212-1.6754-0.30213-0.63171-1.0986-0.63171-1.0712 0-2.1149 1.0437-1.0162 1.0162-1.9226 2.6642t-1.6205 3.7354q-0.68665 2.0599-1.0986 4.1473z"/>
				<path
					d="m382.83 379.47 5.9601-28.125h8.1024l-0.71411 3.4882q0.74157-0.65918 1.5106-1.2909 0.76904-0.63171 1.593-1.0986 0.85144-0.49439 1.7578-0.79651 0.90637-0.30212 1.9226-0.30212 0.96131 0 1.6754 0.35705 0.74158 0.35706 1.236 0.93384 0.49439 0.57678 0.74158 1.3458 0.24719 0.76905 0.24719 1.593 0 0.74158-0.24719 1.4832-0.24719 0.71411-0.76905 1.2909-0.49438 0.57678-1.2634 0.9613-0.76905 0.35706-1.7853 0.35706-0.79651 0-1.236-0.27466-0.41199-0.27466-0.63172-0.68664-0.21972-0.41199-0.32959-0.87891-0.0824-0.49438-0.19226-0.90637t-0.30212-0.68665q-0.1648-0.27466-0.57678-0.27466-1.2909 0-2.1698 0.60425-0.87891 0.57678-1.9226 1.5381l-4.5044 21.368h-8.1024z"/>
			</g>
		</g>
		<g transform="translate(13.723 4.8434)">
			<rect x="200" y="852.4" width="10" height="10"/>
			<rect x="215" y="852.37" width="10" height="10"/>
			<rect x="230.02" y="852.38" width="10" height="10"/>
			<rect x="245.05" y="852.35" width="10" height="10"/>
			<rect x="260.03" y="852.32" width="10" height="10"/>
		</g>
	</g>
</svg>
