<svg xmlns="http://www.w3.org/2000/svg" width="256" height="256">
	<rect height="258" width="258" y="-1" x="-1" fill="#fff"/>
	<path d="m68.2 64.1l119.8 0c2.2 0 4 1.8 4 4l0 101.8c0.1 0.3 0.1 0.6 0 0.8l0 17.1c0 2.2-1.8 4-4 4l-119.8 0c-2.2 0-4-1.8-4-4l0-13.8c-0.3-0.6-0.3-1.3 0-1.8l0-104.1c0.1-2.2 1.9-4 4-4l0 0zm68.4 85.5l20.3-16.4c0.8-0.7 2-0.6 2.7 0.2l28.4 31.8 0-97 -119.8 0 0 99.6 40.5-44.8c0.4-0.4 0.9-0.7 1.5-0.7 0.6 0 1.1 0.2 1.5 0.6l24.9 26.7 0 0zm51.4 21.5l-30.1-33.7 -20.3 16.4c-0.8 0.7-2 0.6-2.7-0.2l-24.6-26.3 -42 46.4 0 14.2 119.7 0 0-16.8 0 0zm-28.1-90.6c-8.6 0-15.6 7-15.6 15.6 0 8.6 7 15.6 15.6 15.6 8.6 0 15.6-7 15.6-15.6 0.1-8.7-6.9-15.6-15.6-15.6l0 0zm0 3.9c-6.4 0-11.7 5.2-11.7 11.7 0 6.4 5.2 11.7 11.7 11.7 6.4 0 11.7-5.2 11.7-11.7 0-6.5-5.2-11.7-11.7-11.7z"/>
	<path d="m136.6 149.8l20.3-16.4c0.8-0.7 2-0.6 2.7 0.2l28.4 31.8 0-97 -119.8 0 0 99.6 40.5-44.8c0.4-0.4 0.9-0.7 1.5-0.7 0.6 0 1.1 0.2 1.5 0.6l24.9 26.7 0 0zm23.3-69.1c8.6 0 15.6 7 15.6 15.6 0 8.6-7 15.6-15.6 15.6 -8.6 0-15.6-7-15.6-15.6 0-8.7 7-15.6 15.6-15.6z" fill="#7aced7"/>
</svg>
